<svg xmlns="http://www.w3.org/2000/svg" xmlns:xlink="http://www.w3.org/1999/xlink" width="1345.5" height="878.22"><g transform="translate(-329 -248)"><path d="M800 412h120v120H800V412z" stroke="#fff" stroke-opacity="0" fill="#693cc5"/><path d="M877.6 510.42c-.35 0-.64-.15-.93-.3-.43-.3-.67-.78-.67-1.3v-73.63c0-.55.3-1.1.77-1.4.48-.3 1.08-.3 1.6-.07l20.8 10.22c.56.23.9.77.9 1.38v56.56c.02.76-.4 1.37-1.1 1.6l-20.8 6.92h-.56zm1.62-72.62v68.78l17.6-5.84v-54.4zM842.4 510.42h-.52l-20.8-6.92c-.67-.23-1.1-.92-1.08-1.6v-56.57c0-.6.33-1.15.9-1.38l20.8-10.22c.52-.23 1.1-.23 1.6.08.48.3.75.85.75 1.4v73.6c0 .54-.24 1-.68 1.3-.28.24-.6.32-.98.32zm-19.2-9.6l17.6 5.83V437.8l-17.6 8.6z" stroke="#fff" stroke-opacity="0" fill="#fff"/><path d="M876 456h-4.8v-3.2h4.8zm-9.6 0h-4.8v-3.2h4.8zm-9.6 0H852v-3.2h4.8zm-9.6 0h-4.8v-3.2h4.8zM876 491.2h-4.8V488h4.8zm-9.6 0h-4.8V488h4.8zm-9.6 0H852V488h4.8zm-9.6 0h-4.8V488h4.8zM852.98 477.5l-6.02-5.13c-.67-.57-.75-1.6-.18-2.26l.18-.17 6-5.13 2.08 2.43-4.58 3.97 4.58 3.92zM867.04 477.5l-2.08-2.42 4.57-3.88-4.6-3.9 2.1-2.5 6 5.12c.68.57.76 1.6.2 2.26-.07.06-.12.12-.2.17z" stroke="#fff" stroke-opacity="0" fill="#fff"/><path d="M855.3 480.87l6.35-18.8 3.04 1.03-6.37 18.8-3.04-1.03z" stroke="#fff" stroke-opacity="0" stroke-width=".32" fill="#fff"/><use xlink:href="#a" transform="matrix(1,0,0,1,770,541) translate(28.30246913580247 17.77777777777778)"/><use xlink:href="#b" transform="matrix(1,0,0,1,770,541) translate(115.89506172839506 17.77777777777778)"/><use xlink:href="#c" transform="matrix(1,0,0,1,770,541) translate(46.2037037037037 44.44444444444444)"/><path d="M1183.95 660.03H1171c-.65 0-1.26-.38-1.52-.98l-18.14-38.9h-7.32c-.9 0-1.7-.75-1.7-1.68v-11.22c0-.92.8-1.68 1.7-1.68h16.15c.7 0 1.26.38 1.52.98l18.1 38.9h4.15c.9 0 1.68.75 1.68 1.73v11.17c0 .92-.78 1.68-1.68 1.68zm-11.9-3.43h10.16v-7.73h-3.5c-.64 0-1.25-.38-1.5-.98l-18.07-38.96h-13.38v7.8h6.67c.7 0 1.3.37 1.56.97z" stroke="#fff" stroke-opacity="0" fill="#d86613"/><path d="M1148.8 660.03H1135c-.9 0-1.68-.77-1.68-1.7 0-.28.05-.48.17-.72l14.45-30.26c.3-.6.87-.97 1.53-.97.67 0 1.24.33 1.54.94l6.9 14.32c.23.47.23.97 0 1.45l-7.55 16c-.3.6-.87.96-1.54.96zm-11.1-3.4h10.02l6.8-14.27-5.1-10.37z" stroke="#fff" stroke-opacity="0" fill="#d86613"/><path d="M1160 676c-22.08 0-40-17.92-40-40s17.92-40 40-40 40 17.92 40 40-17.92 40-40 40zm0-76.56c-20.24 0-36.56 16.32-36.56 36.56 0 20.24 16.32 36.56 36.56 36.56 20.24 0 36.56-16.32 36.56-36.56 0-20.24-16.32-36.56-36.56-36.56z" stroke="#fff" stroke-opacity="0" fill="#d86613"/><use xlink:href="#d" transform="matrix(1,0,0,1,1090,685) translate(28.734567901234563 17.77777777777778)"/><use xlink:href="#e" transform="matrix(1,0,0,1,1090,685) translate(41.69753086419753 44.44444444444444)"/><path d="M615.47 450.64H496v-2h119.47zm166.03 0H679.52v-2H781.5z" stroke="#282c33" stroke-width=".05" fill="#282c33"/><path d="M496 450.64h-1v-2h1z" fill="#282c33"/><path d="M496.04 450.67h-1.08v-2.05h1.08zm-1.03-2v1.95h1v-1.95z" stroke="#282c33" stroke-width=".05" fill="#282c33"/><path d="M796.76 449.64l-14.26 4.64V445z" fill="#282c33"/><path d="M800 449.64l-18.5 6v-12zm-16.5 3.26l10.03-3.26-10.03-3.26z" stroke="#282c33" stroke-width=".05" fill="#282c33"/><use xlink:href="#f" transform="matrix(1,0,0,1,615.4684926419752,438.9765443756724) translate(0 14.222222222222223)"/><path d="M799 505.67v2H693.56v-2zm-184.3-2.56v2h-87.94v-2z" stroke="#282c33" stroke-width=".05" fill="#282c33"/><path d="M800 507.67h-1.03v-2H800z" fill="#282c33"/><path d="M800.02 507.7h-1.07v-2.06h1.07zm-1.02-2v1.94h.98v-1.95z" stroke="#282c33" stroke-width=".05" fill="#282c33"/><path d="M525.76 508.74l-14.27-4.64 14.26-4.64z" fill="#282c33"/><path d="M526.76 510.1l-18.5-6 18.5-6zm-12.03-6l10.03 3.26v-6.52z" stroke="#282c33" stroke-width=".05" fill="#282c33"/><use xlink:href="#g" transform="matrix(1,0,0,1,614.694796874453,494.71663691098007) translate(0 14.222222222222223)"/><path d="M1183.95 332.03H1171c-.65 0-1.26-.38-1.52-.98l-18.14-38.9h-7.32c-.9 0-1.7-.75-1.7-1.68v-11.22c0-.92.8-1.68 1.7-1.68h16.15c.7 0 1.26.38 1.52.98l18.1 38.9h4.15c.9 0 1.68.75 1.68 1.73v11.17c0 .92-.78 1.68-1.68 1.68zm-11.9-3.43h10.16v-7.73h-3.5c-.64 0-1.25-.38-1.5-.98l-18.07-38.96h-13.38v7.8h6.67c.7 0 1.3.37 1.56.97z" stroke="#fff" stroke-opacity="0" fill="#d86613"/><path d="M1148.8 332.03H1135c-.9 0-1.68-.77-1.68-1.7 0-.28.05-.48.17-.72l14.45-30.26c.3-.6.87-.97 1.53-.97.67 0 1.24.33 1.54.94l6.9 14.32c.23.47.23.97 0 1.45l-7.55 16c-.3.6-.87.96-1.54.96zm-11.1-3.4h10.02l6.8-14.27-5.1-10.37z" stroke="#fff" stroke-opacity="0" fill="#d86613"/><path d="M1160 348c-22.08 0-40-17.92-40-40s17.92-40 40-40 40 17.92 40 40-17.92 40-40 40zm0-76.56c-20.24 0-36.56 16.32-36.56 36.56 0 20.24 16.32 36.56 36.56 36.56 20.24 0 36.56-16.32 36.56-36.56 0-20.24-16.32-36.56-36.56-36.56z" stroke="#fff" stroke-opacity="0" fill="#d86613"/><use xlink:href="#h" transform="matrix(1,0,0,1,1090,357) translate(43.48765432098766 17.77777777777778)"/><use xlink:href="#i" transform="matrix(1,0,0,1,1090,357) translate(24.969135802469125 44.44444444444444)"/><path d="M1183.95 496.03H1171c-.65 0-1.26-.38-1.52-.98l-18.14-38.9h-7.32c-.9 0-1.7-.75-1.7-1.68v-11.22c0-.92.8-1.68 1.7-1.68h16.15c.7 0 1.26.38 1.52.98l18.1 38.9h4.15c.9 0 1.68.75 1.68 1.73v11.17c0 .92-.78 1.68-1.68 1.68zm-11.9-3.43h10.16v-7.73h-3.5c-.64 0-1.25-.38-1.5-.98l-18.07-38.96h-13.38v7.8h6.67c.7 0 1.3.37 1.56.97z" stroke="#fff" stroke-opacity="0" fill="#d86613"/><path d="M1148.8 496.03H1135c-.9 0-1.68-.77-1.68-1.7 0-.28.05-.48.17-.72l14.45-30.26c.3-.6.87-.97 1.53-.97.67 0 1.24.33 1.54.94l6.9 14.32c.23.47.23.97 0 1.45l-7.55 16c-.3.6-.87.96-1.54.96zm-11.1-3.4h10.02l6.8-14.27-5.1-10.37z" stroke="#fff" stroke-opacity="0" fill="#d86613"/><path d="M1160 512c-22.08 0-40-17.92-40-40s17.92-40 40-40 40 17.92 40 40-17.92 40-40 40zm0-76.56c-20.24 0-36.56 16.32-36.56 36.56 0 20.24 16.32 36.56 36.56 36.56 20.24 0 36.56-16.32 36.56-36.56 0-20.24-16.32-36.56-36.56-36.56z" stroke="#fff" stroke-opacity="0" fill="#d86613"/><use xlink:href="#j" transform="matrix(1,0,0,1,1090,521) translate(28.73456790123457 17.77777777777778)"/><use xlink:href="#k" transform="matrix(1,0,0,1,1090,521) translate(19.41358024691357 44.44444444444444)"/><path d="M1410.96 603v-27H1500v27zm0 30.96v-26.88H1500v26.88zm0 31.08v-27H1500v27zm0 30.96v-26.88H1500V696zm5.52-5.52h78v-15.96h-78zm0-30.96h78v-15.96h-78zm0-62.04h78v-15.96h-78zm0 30.96h78v-15.96h-78zM1380 603v-27h26.88v27zm0 62.04v-27h26.88v27zm0-31.08v-26.88h26.88v26.88zm0 62.04v-26.88h26.88V696zm5.52-36.48h15.96v-15.96h-15.96zm0 30.96h15.96v-15.96h-15.96zm0-93h15.96v-15.96h-15.96zm0 30.96h15.96v-15.96h-15.96z" stroke="#000" stroke-opacity="0" fill="#2e27ad"/><path d="M1383.04 579.16h113.88V693.4h-113.88V579.16z" stroke="#000" stroke-opacity="0" fill-opacity="0"/><use xlink:href="#l" transform="matrix(1,0,0,1,1350,705) translate(62.575 14.4)"/><path d="M1410.96 367v-27H1500v27zm0 30.96v-26.88H1500v26.88zm0 31.08v-27H1500v27zm0 30.96v-26.88H1500V460zm5.52-5.52h78v-15.96h-78zm0-30.96h78v-15.96h-78zm0-62.04h78v-15.96h-78zm0 30.96h78v-15.96h-78zM1380 367v-27h26.88v27zm0 62.04v-27h26.88v27zm0-31.08v-26.88h26.88v26.88zm0 62.04v-26.88h26.88V460zm5.52-36.48h15.96v-15.96h-15.96zm0 30.96h15.96v-15.96h-15.96zm0-93h15.96v-15.96h-15.96zm0 30.96h15.96v-15.96h-15.96z" stroke="#000" stroke-opacity="0" fill="#2e27ad"/><path d="M1383.04 343.16h113.88V457.4h-113.88V343.16z" stroke="#000" stroke-opacity="0" fill-opacity="0"/><use xlink:href="#m" transform="matrix(1,0,0,1,1350,469) translate(27.549999999999997 14.4)"/><use xlink:href="#n" transform="matrix(1,0,0,1,1350,469) translate(70.5 14.4)"/><path d="M1021 629.96l.06.82.2.76.3.73.4.67.5.6.6.5.67.4.73.3.72.2 76.32.06v2l-76.56-.07-1.1-.27-1.02-.42-.94-.57-.83-.72-.72-.83-.57-.94-.42-1.02-.26-1.06-.08-1.06-.03-39.7h2zm-5.9-107.54l1.06.25 1.02.42.94.57.83.7.72.85.57.93.42 1.02.27 1.1.03 40.73h-2l-.03-40.5-.18-.7-.3-.74-.4-.66-.52-.6-.6-.5-.66-.42-.73-.3-.76-.18-.82-.07H921v-2h93.04z" stroke="#282c33" stroke-width=".05" fill="#282c33"/><path d="M921.03 524.33H920v-2h1.03z" fill="#282c33"/><path d="M921.05 524.36h-1.07v-2.05h1.07zm-1.02-2v1.95h.97v-1.94z" stroke="#282c33" stroke-width=".05" fill="#282c33"/><path d="M1116.76 636l-14.26 4.64v-9.28z" fill="#282c33"/><path d="M1120 636l-18.5 6v-12zm-16.5 3.26l10.03-3.26-10.03-3.26z" stroke="#282c33" stroke-width=".05" fill="#282c33"/><use xlink:href="#o" transform="matrix(1,0,0,1,1010.1234567901234,569.0000000000001) translate(0 14.222222222222223)"/><path d="M1259.46 637H1201v-2h58.46zm105.07 0h-85.32v-2h85.33z" stroke="#282c33" stroke-width=".05" fill="#282c33"/><path d="M1201.03 637h-1.1l.07-1-.04-1h1.07z" fill="#282c33"/><path d="M1201.05 637.02h-1.14l.07-1.02-.03-1.02h1.1zm-1.06-2l.03.98-.07.98h1.04V635z" stroke="#282c33" stroke-width=".05" fill="#282c33"/><path d="M1379.8 636l-14.27 4.64v-9.28z" fill="#282c33"/><path d="M1383.04 636l-18.5 6v-12zm-16.5 3.26l10.02-3.26-10.03-3.26z" stroke="#282c33" stroke-width=".05" fill="#282c33"/><use xlink:href="#p" transform="matrix(1,0,0,1,1259.456790123457,625.3333333333334) translate(0 14.222222222222223)"/><path d="M959.46 427H921v-2h38.46zm142.04-118l-76.32.07-.72.18-.73.3-.67.4-.6.52-.5.6-.4.66-.3.73-.2.76-.06.82-.07 107.02-.27 1.1-.42 1.02-.57.94-.72.83-.83.72-.94.57-1.02.42-1.06.26-1.06.08H979.2v-2h34.76l.82-.06.76-.2.73-.3.67-.4.6-.5.5-.6.4-.67.3-.73.2-.72.06-106.86.08-1.06.26-1.06.42-1.02.57-.94.72-.83.83-.72.94-.57 1.02-.42 1.1-.27 76.56-.07z" stroke="#282c33" stroke-width=".05" fill="#282c33"/><path d="M921.03 427H920v-2h1.03z" fill="#282c33"/><path d="M921.05 427.02h-1.07v-2.04h1.07zm-1.02-2v1.96h.97v-1.96z" stroke="#282c33" stroke-width=".05" fill="#282c33"/><path d="M1116.76 308l-14.26 4.64v-9.28z" fill="#282c33"/><path d="M1120 308l-18.5 6v-12zm-16.5 3.26l10.03-3.26-10.03-3.26z" stroke="#282c33" stroke-width=".05" fill="#282c33"/><use xlink:href="#q" transform="matrix(1,0,0,1,959.4567901234569,415.33333333333337) translate(0 14.222222222222223)"/><path d="M1292.52 393.96l.06.82.2.76.3.73.4.67.5.6.6.5.67.4.72.3.73.2 67.84.06v2l-68.08-.07-1.1-.27-1.02-.42-.94-.57-.83-.72-.72-.83-.57-.94-.42-1.02-.26-1.06-.08-1.06-.03-29.37h2zm-5.9-86.88l1.06.26 1.02.42.93.57.84.72.7.83.6.94.4 1.02.27 1.1.03 30.4h-2l-.03-30.16-.17-.72-.3-.73-.4-.67-.52-.6-.6-.5-.66-.4-.74-.3-.76-.2-.82-.06H1201v-2h84.56z" stroke="#282c33" stroke-width=".05" fill="#282c33"/><path d="M1201.03 309h-1.1l.07-1-.04-1h1.07z" fill="#282c33"/><path d="M1201.05 309.02h-1.14l.07-1.02-.03-1.02h1.1zm-1.06-2l.03.98-.07.98h1.04v-1.96z" stroke="#282c33" stroke-width=".05" fill="#282c33"/><path d="M1379.8 400l-14.27 4.64v-9.28z" fill="#282c33"/><path d="M1383.04 400l-18.5 6v-12zm-16.5 3.26l10.02-3.26-10.03-3.26z" stroke="#282c33" stroke-width=".05" fill="#282c33"/><use xlink:href="#r" transform="matrix(1,0,0,1,1281.6414567901236,343.3333333333333) translate(0 14.222222222222223)"/><path d="M1013.04 452.33H921v-2h92.04zm94.3 0h-74.55v-2h74.53z" stroke="#282c33" stroke-width=".05" fill="#282c33"/><path d="M921.03 452.33H920v-2h1.03z" fill="#282c33"/><path d="M921.05 452.36h-1.07v-2.05h1.07zm-1.02-2v1.95h.97v-1.94z" stroke="#282c33" stroke-width=".05" fill="#282c33"/><path d="M1122.6 451.33l-14.27 4.64v-9.27z" fill="#282c33"/><path d="M1125.84 451.33l-18.5 6.02v-12.03zm-16.5 3.26l10.02-3.27-10.03-3.26z" stroke="#282c33" stroke-width=".05" fill="#282c33"/><use xlink:href="#s" transform="matrix(1,0,0,1,1013.0412927251274,440.66666666666674) translate(0 14.222222222222223)"/><path d="M1223.97 447.38h-32.26v-2h32.27zm137.53-9.7l-71.93.05-.55.13-.55.23-.52.3-.46.4-.4.46-.32.5-.23.57-.14.6-.05.67-.06.84-.23.9-.35.85-.48.77-.6.7-.7.6-.78.48-.85.35-.88.2-.88.08h-36.82v-2h36.74l.64-.05.6-.14.55-.24.52-.32.46-.4.4-.45.3-.53.24-.55.14-.6.06-.67.07-.84.2-.9.36-.84.47-.78.6-.7.7-.6.78-.48.85-.35.94-.22 72.16-.06z" stroke="#282c33" stroke-width=".05" fill="#282c33"/><path d="M1191.74 447.38h-.3l-.73-1-.93-1h1.97z" fill="#282c33"/><path d="M1191.77 447.4h-.33l-.74-1-1-1.04h2.07zm-1.94-2l.9.97.73 1h.26v-1.96z" stroke="#282c33" stroke-width=".05" fill="#282c33"/><path d="M1376.76 436.67l-14.26 4.63v-9.27z" fill="#282c33"/><path d="M1380 436.67l-18.5 6v-12.02zm-16.5 3.26l10.03-3.26-10.03-3.26z" stroke="#282c33" stroke-width=".05" fill="#282c33"/><use xlink:href="#t" transform="matrix(1,0,0,1,1223.9652328592672,435.71629433333334) translate(0 14.222222222222223)"/><path d="M1621.64 1037.54h-.72l-26.28-7.08c-.72-.24-1.32-.72-1.68-1.32-.36-.6-.36-1.44-.24-2.04l15.6-57.96c.24-.72.6-1.32 1.32-1.68.6-.36 1.32-.48 2.04-.24l26.28 7.08c1.44.36 2.28 1.92 1.92 3.36l-15.6 57.96c-.12.6-.6 1.2-1.2 1.56-.48.24-.96.36-1.44.36zm-71.64-5.16h-27.24c-1.56 0-2.76-1.2-2.76-2.76v-60c0-1.56 1.2-2.76 2.76-2.76H1550c1.44 0 2.64 1.2 2.64 2.76v60c0 1.56-1.2 2.76-2.64 2.76zm35.4 0h-27.24c-1.56 0-2.76-1.2-2.76-2.76v-60c0-1.56 1.2-2.76 2.76-2.76h27.24c1.56 0 2.76 1.2 2.76 2.76v60c0 1.56-1.2 2.76-2.76 2.76zm-60-5.52h21.84v-54.48h-21.84zm35.52 0h21.72v-54.48h-21.72zm37.8-.96l21 5.64 14.16-52.68-21-5.64zM1520 945.02v-5.4h119.88v5.4zm0 114.6v-5.4h119.88v5.4z" stroke="#000" stroke-opacity="0" fill="#2e27ad"/><path d="M1523.14 942.25h113.88v115.2h-113.88v-115.2z" stroke="#000" stroke-opacity="0" fill-opacity="0"/><use xlink:href="#u" transform="matrix(1,0,0,1,1490,1068.6215229999998) translate(17.549999999999997 14.4)"/><use xlink:href="#v" transform="matrix(1,0,0,1,1490,1068.6215229999998) translate(104.5 14.4)"/><use xlink:href="#w" transform="matrix(1,0,0,1,1490,1068.6215229999998) translate(61.05 36)"/><path d="M1581 921.12h-2l-.06-385.8h2zm-5.9-522.04l1.06.26 1.02.42.94.57.83.72.72.83.57.94.42 1.02.27 1.1V514h-2V405.18l-.18-.72-.3-.73-.4-.67-.52-.6-.6-.5-.66-.4-.73-.3-.76-.2-.82-.06h-76.04v-2h76.12z" stroke="#282c33" stroke-width=".05" fill="#282c33"/><path d="M1497.94 401h-1.02v-2h1.02z" fill="#282c33"/><path d="M1497.97 401.02h-1.08v-2.04h1.07zm-1.03-2v1.96h.98v-1.96z" stroke="#282c33" stroke-width=".05" fill="#282c33"/><path d="M1580 936.4l-4.64-14.28h9.28z" fill="#282c33"/><path d="M1580 939.62l-6-18.5h12zm-3.26-16.5l3.26 10.03 3.26-10.03z" stroke="#282c33" stroke-width=".05" fill="#282c33"/><use xlink:href="#x" transform="matrix(1,0,0,1,1570.1234567901236,514.0000000000001) translate(0 14.222222222222223)"/><path d="M1415.2 1000.62h-56.7v-2h56.7zm103.8 0h-74.2v-2h74.2z" stroke="#282c33" stroke-width=".05" fill="#282c33"/><path d="M1520 1000.62h-1.03v-2h1.03z" fill="#282c33"/><path d="M1520.03 1000.65h-1.08v-2.05h1.08zm-1.03-2v1.95h.97v-1.95z" stroke="#282c33" stroke-width=".05" fill="#282c33"/><path d="M1357.5 1004.26l-14.26-4.64 14.26-4.63z" fill="#282c33"/><path d="M1358.5 1005.63l-18.5-6 18.5-6.02zm-12.03-6l10.03 3.25v-6.52z" stroke="#282c33" stroke-width=".05" fill="#282c33"/><use xlink:href="#y" transform="matrix(1,0,0,1,1415.1851851851852,988.9548563333333) translate(0 14.222222222222223)"/><path d="M1220 950.62h120v78h-120v-78z" fill="#876929"/><path d="M1220 950.62h120v72.67h-120z" fill="#d9a741"/><path d="M1253.3 960.4h12.78v54.8h-12.78v-54.8zM1273.6 960.4h12.78v54.8h-12.78v-54.8zM1293.9 960.4h12.78v54.8h-12.78v-54.8zM1234.8 975.92v23.77l10.96-11.9-10.95-11.88zM1314.2 975.92v23.77l10.97-11.9-10.96-11.88z" fill="#fff"/><use xlink:href="#z" transform="matrix(1,0,0,1,1220,1028.6215229999998) translate(39.660493827160494 17.77777777777778)"/><use xlink:href="#A" transform="matrix(1,0,0,1,1220,1028.6215229999998) translate(9.413580246913568 44.44444444444444)"/><use xlink:href="#B" transform="matrix(1,0,0,1,1220,1028.6215229999998) translate(29.135802469135804 71.11111111111111)"/><path d="M1183.95 844.03H1171c-.65 0-1.26-.38-1.52-.98l-18.14-38.9h-7.32c-.9 0-1.7-.75-1.7-1.68v-11.22c0-.92.8-1.68 1.7-1.68h16.15c.7 0 1.26.38 1.52.98l18.1 38.9h4.15c.9 0 1.68.75 1.68 1.73v11.17c0 .92-.78 1.68-1.68 1.68zm-11.9-3.43h10.16v-7.73h-3.5c-.64 0-1.25-.38-1.5-.98l-18.07-38.96h-13.38v7.8h6.67c.7 0 1.3.37 1.56.97z" stroke="#fff" stroke-opacity="0" fill="#d86613"/><path d="M1148.8 844.03H1135c-.9 0-1.68-.77-1.68-1.7 0-.28.05-.48.17-.72l14.45-30.26c.3-.6.87-.97 1.53-.97.67 0 1.24.33 1.54.94l6.9 14.32c.23.47.23.97 0 1.45l-7.55 16c-.3.6-.87.96-1.54.96zm-11.1-3.4h10.02l6.8-14.27-5.1-10.37z" stroke="#fff" stroke-opacity="0" fill="#d86613"/><path d="M1160 860c-22.08 0-40-17.92-40-40s17.92-40 40-40 40 17.92 40 40-17.92 40-40 40zm0-76.56c-20.24 0-36.56 16.32-36.56 36.56 0 20.24 16.32 36.56 36.56 36.56 20.24 0 36.56-16.32 36.56-36.56 0-20.24-16.32-36.56-36.56-36.56z" stroke="#fff" stroke-opacity="0" fill="#d86613"/><use xlink:href="#C" transform="matrix(1,0,0,1,1090,869) translate(34.93827160493827 17.77777777777778)"/><path d="M1281 949.62h-2V910h2zm-5.94-108.14l1.1.27 1.02.42.94.57.83.72.72.83.57.93.42 1.02.26 1.06.08 1.07v40.3h-2v-40.22l-.06-.82-.2-.76-.3-.73-.4-.67-.5-.6-.6-.5-.67-.4-.73-.3-.72-.2-63.25-.06v-2z" stroke="#282c33" stroke-width=".05" fill="#282c33"/><path d="M1281 950.62h-2v-1.02h2z" fill="#282c33"/><path d="M1281.03 950.65h-2.06v-1.08h2.06zm-2-1.03v.98h1.94v-.98z" stroke="#282c33" stroke-width=".05" fill="#282c33"/><path d="M1210.57 847.04l-14.27-4.63 14.27-4.63z" fill="#282c33"/><path d="M1211.57 848.42l-18.5-6 18.5-6.02zm-12.03-6l10.03 3.25v-6.52z" stroke="#282c33" stroke-width=".05" fill="#282c33"/><use xlink:href="#D" transform="matrix(1,0,0,1,1265.679012345679,888.6666666666669) translate(0 14.222222222222223)"/><path d="M1284.74 786.18l-.27 1.1-.42 1.02-.57.94-.7.84-.85.7-.94.58-1.02.42-1.07.26-1.05.08h-89.22v-2h89.14l.83-.06.76-.18.72-.3.67-.4.6-.52.5-.6.42-.67.3-.73.17-.73.02-21.27h2zM1361.5 683l-72.5.07-.73.18-.73.3-.66.4-.6.52-.5.6-.42.66-.3.73-.18.76-.07.82-.03 55.3h-2l.04-55.38.1-1.06.25-1.06.42-1.02.58-.94.7-.83.85-.72.93-.57 1.02-.42 1.1-.27 72.75-.07z" stroke="#282c33" stroke-width=".05" fill="#282c33"/><path d="M1188.65 792.12l-1.4-1.4-.73-.6h2.13z" fill="#282c33"/><path d="M1188.68 792.18l-1.44-1.43-.8-.65h2.24zm-2.1-2.03l.7.56 1.35 1.36v-1.9z" stroke="#282c33" stroke-width=".05" fill="#282c33"/><path d="M1376.76 682l-14.26 4.64v-9.28z" fill="#282c33"/><path d="M1380 682l-18.5 6v-12zm-16.5 3.26l10.03-3.26-10.03-3.26z" stroke="#282c33" stroke-width=".05" fill="#282c33"/><use xlink:href="#E" transform="matrix(1,0,0,1,1268.9986923997662,743.3333333333335) translate(0 14.222222222222223)"/><path d="M812.8 847.94c-6.8 0-12.3-5.53-12.3-12.3v-65.3c0-6.92 5.5-12.45 12.3-12.45h65.5c6.93 0 12.42 5.52 12.42 12.44v65.43c0 6.92-5.5 12.3-12.43 12.3h-65.5z" stroke="#000" stroke-opacity="0" stroke-width="1.67" fill="#fff"/><path d="M878.17 842.96H812.8c-3.94 0-7.28-3.32-7.28-7.33v-65.3c0-4 3.34-7.32 7.3-7.32h65.47c4.06 0 7.4 3.33 7.4 7.34v65.43c-.24 3.87-3.58 7.2-7.53 7.2z" stroke="#000" stroke-opacity="0" stroke-width="1.67" fill="#515050"/><path d="M892.04 879.62c-2.75 0-5.26-1.66-6.22-4.15L884.4 872h-2.88l-1.55 3.47c-.84 2.5-3.35 4.15-5.98 4.15-.84 0-1.8-.14-2.52-.55l-6.33-2.63c-1.67-.7-3-1.94-3.7-3.6-.6-1.66-.6-3.6 0-5.25l1.55-3.47-1.8-1.8-3.58 1.52c-.84.28-1.67.42-2.5.42-2.64 0-5.15-1.66-6.1-4.15l-2.63-6.37c-.73-1.66-.73-3.46 0-5.12.6-1.66 1.9-3.04 3.57-3.73l3.6-1.38v-2.77l-3.6-1.52c-1.67-.56-2.98-1.94-3.58-3.6-.73-1.66-.73-3.46 0-5.12l2.62-6.35c.95-2.5 3.46-4.15 6.1-4.15.83 0 1.66.14 2.5.4l3.6 1.54 1.78-1.8-1.56-3.46c-.6-1.66-.6-3.6 0-5.26.72-1.66 2.04-2.9 3.7-3.6l6.34-2.76c.84-.28 1.68-.4 2.5-.4 2.64 0 5.15 1.65 6.23 4.14l1.32 3.32h2.87l1.3-3.46c.96-2.5 3.47-4.15 6.1-4.15.83 0 1.67.15 2.5.42l6.34 2.77c1.67.54 3 1.93 3.7 3.6.6 1.65.6 3.44 0 5.1l-1.55 3.6 1.9 1.8 3.47-1.52c.84-.28 1.67-.56 2.5-.56 2.64 0 5.15 1.8 6.22 4.3l2.62 6.22c.6 1.66.6 3.6 0 5.25-.72 1.65-2.03 2.9-3.7 3.6l-3.47 1.5v2.64l3.47 1.52c3.46 1.52 5.02 5.4 3.7 8.85L916.9 860c-1.08 2.5-3.6 4.15-6.22 4.15-.84 0-1.8-.14-2.63-.56l-3.6-1.52-1.78 1.94 1.56 3.45c.6 1.66.6 3.46 0 5.12-.72 1.66-2.04 3.04-3.7 3.73l-6.34 2.63c-.37.55-1.33.7-2.16.7z" stroke="#000" stroke-opacity="0" stroke-width="1.67" fill="#fff"/><path d="M882.95 824.98c9.56 0 17.2 7.6 17.2 17.15 0 9.55-7.64 17.16-17.2 17.16-9.44 0-17.08-7.62-17.08-17.17 0-9.54 7.64-17.15 17.08-17.15zm8.85-15.5c-.6 0-1.32.42-1.68 1.1l-2.15 5.4c-.35.84-.83 1.53-.95 1.53-.24 0-1.2-.27-2.03-.4 0 0-.85-.14-2.16-.14-1.32 0-2.16.14-2.16.14-1.07.13-1.8.13-2.03.4-.12 0-.6-.68-.95-1.5l-2.15-5.4c-.36-.7-.96-1.1-1.8-1.1-.12 0-.36 0-.6.13l-6.33 2.62c-.83.42-1.3 1.4-.95 2.36l2.15 5.4c.36.83.48 1.66.36 1.8-.24.14-.84.7-1.56 1.38l-3.1 3.04c-.72.7-1.2 1.53-1.44 1.8h-.24c-.24 0-.83-.14-1.55-.4l-5.03-2.5c-.12-.14-.36-.14-.6-.14-.7 0-1.3.4-1.67 1.1l-2.75 6.37c-.24.83 0 1.8 1.08 2.35l5.25 2.2c.84.3 1.56.84 1.56.98s-.12 1.1-.12 1.94v4.43c0 .96.12 1.8.12 1.93 0 .14-.72.7-1.56.97l-5.25 2.35c-.84.42-1.32 1.4-1.08 2.35l2.75 6.37c.24.7.96 1.1 1.67 1.1.24 0 .36 0 .6-.13l5.38-2.23c.6-.14 1.2-.4 1.55-.4.12 0 .24.13.24.13.24.13.72.83 1.3 1.66l3.24 3.04c.6.7 1.43 1.1 1.67 1.24.12.28 0 1.1-.35 1.94l-2.5 4.98c-.37.83 0 1.8.94 2.35l6.34 2.64c.23 0 .47.14.7.14.6 0 1.33-.42 1.7-1.1l2.14-5.4c.35-.83.83-1.52 1.07-1.52.1 0 1.07.13 1.9.4 0 0 .84.15 2.15.15 1.44 0 2.28-.13 2.28-.13.95-.28 1.8-.28 1.9-.4.25 0 .72.68 1.08 1.5l2.16 5.4c.24.56.96 1.1 1.68 1.1.24 0 .36-.13.6-.13l6.33-2.63c.83-.4 1.3-1.37 1.07-2.34l-2.15-5.4c-.37-.82-.6-1.65-.37-1.8.12-.13.84-.68 1.68-1.38l3.1-3.18c.73-.55 1.2-1.38 1.33-1.66h.24c.36 0 .95.14 1.67.42l5.26 2.07c.24.14.48.14.72.14.6 0 1.3-.28 1.67-1.1l2.62-6.37c-.12-.4-.48-1.38-1.32-1.8l-5.37-2.2c-.84-.3-1.44-.84-1.44-.98s.1-1.1.1-1.94v-4.42c0-.97-.1-1.8-.1-1.94 0-.14.6-.7 1.43-.97l5.37-2.2c.84-.3 1.32-1.4.96-2.36l-2.63-6.38c-.24-.55-.96-1.1-1.67-1.1-.24 0-.48.14-.6.14l-5.38 2.2c-.6.3-1.2.42-1.55.42-.12 0-.24 0-.24-.13-.25-.14-.73-.83-1.44-1.66l-3.1-2.92c-.73-.7-1.57-1.24-1.57-1.38-.12-.14 0-.83.35-1.8l2.15-5.4c.36-.82 0-1.8-.95-2.35l-6.34-2.62c-.22-.14-.46-.14-.7-.14z" stroke="#000" stroke-opacity="0" stroke-width="1.67" fill="#515150"/><path d="M881.28 792.9c-14.1 0-25.8-11.63-25.8-25.74 0-14.25 11.7-25.87 25.8-25.87 14.22 0 25.93 11.6 25.93 25.86 0 14.1-11.7 25.73-25.92 25.73z" stroke="#000" stroke-opacity="0" stroke-width="1.67" fill="#fff"/><path d="M902.2 767.16c0-11.48-9.33-20.9-20.92-20.9-11.47 0-20.8 9.42-20.8 20.9 0 11.48 9.33 20.75 20.8 20.75 11.6 0 20.9-9.26 20.9-20.74z" stroke="#000" stroke-opacity="0" stroke-width="1.67" fill="#515150"/><path d="M884.4 754.85v21.44h-4.8v-16.34c-.23.14-.47.56-.7.7-.37.13-.73.27-1.2.4-.48.3-.84.43-1.2.43s-.83.12-1.2.12v-3.73c1.2-.3 2.4-.84 3.35-1.26.96-.55 2.03-1.24 2.87-1.8z" stroke="#000" stroke-opacity="0" stroke-width="1.67" fill="#fff"/><path d="M800 885.62a6 6 0 0 1 6-6h108a6 6 0 0 1 6 6v48a6 6 0 0 1-6 6H806a6 6 0 0 1-6-6z" stroke="#000" stroke-opacity="0" stroke-width="3" fill="#fff" fill-opacity="0"/><use xlink:href="#F" transform="matrix(1,0,0,1,805,884.6215229999999) translate(14.351851851851848 17.77777777777778)"/><use xlink:href="#G" transform="matrix(1,0,0,1,805,884.6215229999999) translate(29.691358024691358 44.44444444444444)"/><use xlink:href="#H" transform="matrix(1,0,0,1,805,884.6215229999999) translate(22.345679012345684 71.11111111111111)"/><path d="M996.58 821h-75.3v-2h75.3zm122.42 0h-92.8v-2h92.8z" stroke="#282c33" stroke-width=".05" fill="#282c33"/><path d="M1120 820l.04 1h-1.07v-2h1.1z" fill="#282c33"/><path d="M1120.03 820l.03 1.02h-1.1V819h1.13zm-1.03-.98V821h1l-.03-.98.07-.98z" stroke="#282c33" stroke-width=".05" fill="#282c33"/><path d="M920.3 824.64L906.02 820l14.26-4.64z" fill="#282c33"/><path d="M921.3 826l-18.5-6 18.5-6zm-12.04-6l10.03 3.26v-6.52z" stroke="#282c33" stroke-width=".05" fill="#282c33"/><use xlink:href="#I" transform="matrix(1,0,0,1,996.5811671851852,809.3333333333334) translate(0 14.222222222222223)"/><path d="M361.5 470.63l-16.32.07-.72.18-.73.3-.67.4-.6.5-.5.6-.4.68-.3.72-.2.77-.06.82.07 325.15.18.72.3.73.4.67.52.6.6.5.66.4.73.3.76.2.82.06h102.9v2H345.95l-1.06-.08-1.06-.26-1.02-.42-.94-.57-.83-.72-.72-.83-.57-.94-.42-1.02-.27-1.1L339 475.6l.08-1.07.26-1.07.42-1 .57-.95.72-.82.83-.72.94-.57 1.02-.43 1.1-.27 16.55-.07zM634.56 805v2H575v-2zm164.94 0v2H664.2v-2z" stroke="#282c33" stroke-width=".05" fill="#282c33"/><path d="M800.5 807h-1.03v-2h1.03z" fill="#282c33"/><path d="M800.52 807.02h-1.07V805h1.07zm-1.02-2V807h.97V805z" stroke="#282c33" stroke-width=".05" fill="#282c33"/><path d="M376.76 469.63l-14.26 4.63V465z" fill="#282c33"/><path d="M380 469.63l-18.5 6v-12zm-16.5 3.26l10.03-3.27-10.03-3.26z" stroke="#282c33" stroke-width=".05" fill="#282c33"/><use xlink:href="#J" transform="matrix(1,0,0,1,448.92622157048726,795.3333333333335) translate(0 14.222222222222223)"/><use xlink:href="#K" transform="matrix(1,0,0,1,448.92622157048726,795.3333333333335) translate(55.11111111111112 14.222222222222223)"/><use xlink:href="#L" transform="matrix(1,0,0,1,448.92622157048726,795.3333333333335) translate(94.56790123456791 14.222222222222223)"/><use xlink:href="#M" transform="matrix(1,0,0,1,634.5626206443438,795.3333333333335) translate(0 14.222222222222223)"/><path d="M1012.97 493.46H938.5v-2h74.47zm111.73 0h-91.97v-2h91.97z" stroke="#282c33" stroke-width=".05" fill="#282c33"/><path d="M1126.26 493.46h-1.6v-2h.48z" fill="#282c33"/><path d="M1126.3 493.5h-1.65v-2.06h.5zm-1.6-2v1.94h1.5l-1.07-1.95z" stroke="#282c33" stroke-width=".05" fill="#282c33"/><path d="M937.5 497.1l-14.26-4.64 14.26-4.63z" fill="#282c33"/><path d="M938.5 498.48l-18.5-6.02 18.5-6zm-12.03-6.02l10.03 3.26v-6.52z" stroke="#282c33" stroke-width=".05" fill="#282c33"/><use xlink:href="#N" transform="matrix(1,0,0,1,1012.9724893628678,481.7967772599252) translate(0 14.222222222222223)"/><path d="M1250.12 472.96l-31.62.04v-2l31.62-.04zM1379 460.33h-82.96l-.82.07-.76.18-.73.3-.67.4-.6.52-.5.6-.4.66-.3.73-.2.74-.06 1.52-.08 1.04-.26 1.06-.42 1.02-.57.94-.72.83-.83.72-.94.57-1.02.42-1.1.27h-15.18v-2h14.94l.72-.18.73-.3.67-.4.6-.52.5-.6.4-.66.3-.73.2-.76.06-.84.08-1.7.26-1.07.42-1.02.57-.93.72-.84.83-.7.94-.6 1.02-.4 1.06-.26 1.06-.1H1379z" stroke="#282c33" stroke-width=".05" fill="#282c33"/><path d="M1380 460h3v.33h-4.03v-2h1.03z" fill="#282c33"/><path d="M1380.03 459.98h3v.38h-4.08v-2.05h1.08zm-1.03-1.62v1.95h3.97v-.28h-3v-1.66z" stroke="#282c33" stroke-width=".05" fill="#282c33"/><path d="M1217.5 476.64l-14.26-4.64 14.26-4.64z" fill="#282c33"/><path d="M1218.5 478l-18.5-6 18.5-6zm-12.03-6l10.03 3.26v-6.52z" stroke="#282c33" stroke-width=".05" fill="#282c33"/><use xlink:href="#O" transform="matrix(1,0,0,1,1250.1234567901238,461.3333333333333) translate(0 14.222222222222223)"/><path d="M1345.85 820.95l-127.35.05v-2l127.35-.05zm52.48-6.9l-.08 1.05-.26 1.06-.43 1.02-.57.94-.7.83-.85.72-.94.57-1 .42-1.1.27h-16.92v-2h16.67l.73-.18.72-.3.67-.4.6-.52.5-.6.42-.66.3-.73.17-.76.06-.82V697h2z" stroke="#282c33" stroke-width=".05" fill="#282c33"/><path d="M1398.33 697.03h-2V696h2z" fill="#282c33"/><path d="M1398.36 697.05h-2.05v-1.07h2.06zm-2-1.02v.97h1.95v-.98z" stroke="#282c33" stroke-width=".05" fill="#282c33"/><path d="M1217.5 824.64l-14.26-4.64 14.26-4.64z" fill="#282c33"/><path d="M1218.5 826l-18.5-6 18.5-6zm-12.03-6l10.03 3.26v-6.52z" stroke="#282c33" stroke-width=".05" fill="#282c33"/><g><use xlink:href="#P" transform="matrix(1,0,0,1,1345.851851851852,809.3333333333334) translate(0 14.222222222222223)"/></g><path d="M380 518.28h115V420H380z" stroke="#000" stroke-opacity="0" stroke-width="1.67" fill="#fff"/><path d="M383.34 515.04h108.3v-91.68h-108.3z" stroke="#000" stroke-opacity="0" stroke-width="1.67" fill="#4d81b8"/><path d="M386.67 511.68H488.3v-66.72H386.68z" stroke="#000" stroke-opacity="0" stroke-width="1.67" fill="#fff"/><path d="M508.33 502.56c0-20.76-16.8-37.56-37.47-37.56-20.8 0-37.47 16.8-37.47 37.56 0 20.64 16.67 37.44 37.46 37.44 20.66 0 37.47-16.8 37.47-37.44z" stroke="#000" stroke-opacity="0" stroke-width="1.67" fill="#fff"/><path d="M463.42 472.8c-2.3 2.88-4.24 7.08-5.65 12.24-3.47-.72-6.8-1.8-9.63-3.12 4.1-4.44 9.37-7.68 15.28-9.12zm15 0c5.9 1.44 11.18 4.68 15.28 9.12-2.82 1.32-6.03 2.4-9.62 3.12-1.4-5.16-3.34-9.36-5.65-12.24zm-7.43-.96c3.58 0 7.43 5.28 9.87 13.8-3.2.48-6.55.72-9.88.72-3.35 0-6.7-.24-9.9-.72 2.32-8.52 6.17-13.8 9.9-13.8zm-24.9 12.72c3.2 1.56 6.92 2.88 10.9 3.72-.77 3.72-1.16 7.32-1.28 11.76h-15.66c.38-6 2.7-10.92 6.03-15.48zm35.54 4.32c.64 3.48 1.15 6.84 1.28 11.16h-23.87c0-4.32.52-7.68 1.3-11.16 3.32.48 6.92.84 10.64.84 3.58 0 7.17-.36 10.64-.84zm14.12-4.32c3.33 4.56 5.5 9.48 5.9 15.48h-15.53c-.13-4.44-.5-8.04-1.28-11.76 4.1-.84 7.83-2.16 10.9-3.72zm-12.84 18.72c-.13 4.2-.5 8.64-1.15 12.12-3.47-.48-7.2-.84-10.78-.84-3.73 0-7.33.36-10.92.84-.64-3.48-1.03-7.92-1.16-12.12zm18.74 0c-.26 5.88-2.05 11.88-5.13 16.44-3.2-1.56-7.2-2.88-11.55-3.72.77-3.72 1.15-8.4 1.15-12.72zm-45.94 0c0 4.32.38 9 1.15 12.72-4.36.84-8.34 2.16-11.55 3.72-3.08-4.56-4.88-10.56-5.13-16.44zm1.8 15.96c1.4 5.52 3.46 10.08 5.9 13.2-6.3-1.56-11.94-5.16-16.05-10.08 2.83-1.32 6.3-2.4 10.14-3.12zm26.8 0c3.86.72 7.33 1.8 10.15 3.12-4.1 4.92-9.62 8.52-16.04 10.08 2.44-3.12 4.5-7.68 5.9-13.2zM471 517.92c3.32 0 6.8.24 10.13.72-2.3 9.12-6.42 14.76-10.14 14.76-3.86 0-7.84-5.64-10.15-14.76 3.2-.48 6.67-.72 10.14-.72zm0-49.32c-18.88 0-34.15 15.24-34.15 33.96 0 18.84 15.27 34.08 34.14 34.08 18.72 0 34-15.24 34-34.08 0-18.72-15.28-33.96-34-33.96z" stroke="#000" stroke-opacity="0" stroke-width="1.67" fill="#4d81b8"/><path d="M380 538a6 6 0 0 1 6-6h116.33a6 6 0 0 1 6 6v48a6 6 0 0 1-6 6H386a6 6 0 0 1-6-6z" stroke="#000" stroke-opacity="0" stroke-width="3" fill="#fff" fill-opacity="0"/><g><use xlink:href="#Q" transform="matrix(1,0,0,1,385,537) translate(14.067901234567898 30.27777777777778)"/><use xlink:href="#R" transform="matrix(1,0,0,1,385,537) translate(65.42592592592592 30.27777777777778)"/></g><defs><path fill="#282c33" d="M205 0l-28-72H64L36 0H1l101-248h38L239 0h-34zm-38-99l-47-123c-12 45-31 82-46 123h93" id="S"/><path fill="#282c33" d="M210-169c-67 3-38 105-44 169h-31v-121c0-29-5-50-35-48C34-165 62-65 56 0H25l-1-190h30c1 10-1 24 2 32 10-44 99-50 107 0 11-21 27-35 58-36 85-2 47 119 55 194h-31v-121c0-29-5-49-35-48" id="T"/><path fill="#282c33" d="M141-36C126-15 110 5 73 4 37 3 15-17 15-53c-1-64 63-63 125-63 3-35-9-54-41-54-24 1-41 7-42 31l-33-3c5-37 33-52 76-52 45 0 72 20 72 64v82c-1 20 7 32 28 27v20c-31 9-61-2-59-35zM48-53c0 20 12 33 32 33 41-3 63-29 60-74-43 2-92-5-92 41" id="U"/><path fill="#282c33" d="M9 0v-24l116-142H16v-24h144v24L44-24h123V0H9" id="V"/><path fill="#282c33" d="M100-194c62-1 85 37 85 99 1 63-27 99-86 99S16-35 15-95c0-66 28-99 85-99zM99-20c44 1 53-31 53-75 0-43-8-75-51-75s-53 32-53 75 10 74 51 75" id="W"/><path fill="#282c33" d="M117-194c89-4 53 116 60 194h-32v-121c0-31-8-49-39-48C34-167 62-67 57 0H25l-1-190h30c1 10-1 24 2 32 11-22 29-35 61-36" id="X"/><g id="a"><use transform="matrix(0.06172839506172839,0,0,0.06172839506172839,0,0)" xlink:href="#S"/><use transform="matrix(0.06172839506172839,0,0,0.06172839506172839,14.814814814814813,0)" xlink:href="#T"/><use transform="matrix(0.06172839506172839,0,0,0.06172839506172839,33.2716049382716,0)" xlink:href="#U"/><use transform="matrix(0.06172839506172839,0,0,0.06172839506172839,45.61728395061728,0)" xlink:href="#V"/><use transform="matrix(0.06172839506172839,0,0,0.06172839506172839,56.72839506172839,0)" xlink:href="#W"/><use transform="matrix(0.06172839506172839,0,0,0.06172839506172839,69.07407407407408,0)" xlink:href="#X"/></g><path fill="#282c33" d="M30-248c87 1 191-15 191 75 0 78-77 80-158 76V0H30v-248zm33 125c57 0 124 11 124-50 0-59-68-47-124-48v98" id="Y"/><path fill="#282c33" d="M33 0v-248h34V0H33" id="Z"/><g id="b"><use transform="matrix(0.06172839506172839,0,0,0.06172839506172839,0,0)" xlink:href="#S"/><use transform="matrix(0.06172839506172839,0,0,0.06172839506172839,14.814814814814813,0)" xlink:href="#Y"/><use transform="matrix(0.06172839506172839,0,0,0.06172839506172839,29.629629629629626,0)" xlink:href="#Z"/></g><path fill="#282c33" d="M143 4C61 4 22-44 18-125c-5-107 100-154 193-111 17 8 29 25 37 43l-32 9c-13-25-37-40-76-40-61 0-88 39-88 99 0 61 29 100 91 101 35 0 62-11 79-27v-45h-74v-28h105v86C228-13 192 4 143 4" id="aa"/><path fill="#282c33" d="M59-47c-2 24 18 29 38 22v24C64 9 27 4 27-40v-127H5v-23h24l9-43h21v43h35v23H59v120" id="ab"/><path fill="#282c33" d="M100-194c63 0 86 42 84 106H49c0 40 14 67 53 68 26 1 43-12 49-29l28 8c-11 28-37 45-77 45C44 4 14-33 15-96c1-61 26-98 85-98zm52 81c6-60-76-77-97-28-3 7-6 17-6 28h103" id="ac"/><path fill="#282c33" d="M206 0h-36l-40-164L89 0H53L-1-190h32L70-26l43-164h34l41 164 42-164h31" id="ad"/><path fill="#282c33" d="M179-190L93 31C79 59 56 82 12 73V49c39 6 53-20 64-50L1-190h34L92-34l54-156h33" id="ae"/><g id="c"><use transform="matrix(0.06172839506172839,0,0,0.06172839506172839,0,0)" xlink:href="#aa"/><use transform="matrix(0.06172839506172839,0,0,0.06172839506172839,17.28395061728395,0)" xlink:href="#U"/><use transform="matrix(0.06172839506172839,0,0,0.06172839506172839,29.629629629629626,0)" xlink:href="#ab"/><use transform="matrix(0.06172839506172839,0,0,0.06172839506172839,35.80246913580247,0)" xlink:href="#ac"/><use transform="matrix(0.06172839506172839,0,0,0.06172839506172839,48.148148148148145,0)" xlink:href="#ad"/><use transform="matrix(0.06172839506172839,0,0,0.06172839506172839,64.1358024691358,0)" xlink:href="#U"/><use transform="matrix(0.06172839506172839,0,0,0.06172839506172839,76.48148148148148,0)" xlink:href="#ae"/></g><path fill="#282c33" d="M233-177c-1 41-23 64-60 70L243 0h-38l-65-103H63V0H30v-248c88 3 205-21 203 71zM63-129c60-2 137 13 137-47 0-61-80-42-137-45v92" id="af"/><path fill="#282c33" d="M177-190C167-65 218 103 67 71c-23-6-38-20-44-43l32-5c15 47 100 32 89-28v-30C133-14 115 1 83 1 29 1 15-40 15-95c0-56 16-97 71-98 29-1 48 16 59 35 1-10 0-23 2-32h30zM94-22c36 0 50-32 50-73 0-42-14-75-50-75-39 0-46 34-46 75s6 73 46 73" id="ag"/><path fill="#282c33" d="M24-231v-30h32v30H24zM24 0v-190h32V0H24" id="ah"/><path fill="#282c33" d="M135-143c-3-34-86-38-87 0 15 53 115 12 119 90S17 21 10-45l28-5c4 36 97 45 98 0-10-56-113-15-118-90-4-57 82-63 122-42 12 7 21 19 24 35" id="ai"/><path fill="#282c33" d="M114-163C36-179 61-72 57 0H25l-1-190h30c1 12-1 29 2 39 6-27 23-49 58-41v29" id="aj"/><g id="d"><use transform="matrix(0.06172839506172839,0,0,0.06172839506172839,0,0)" xlink:href="#af"/><use transform="matrix(0.06172839506172839,0,0,0.06172839506172839,15.987654320987653,0)" xlink:href="#ac"/><use transform="matrix(0.06172839506172839,0,0,0.06172839506172839,28.333333333333332,0)" xlink:href="#ag"/><use transform="matrix(0.06172839506172839,0,0,0.06172839506172839,40.67901234567901,0)" xlink:href="#ah"/><use transform="matrix(0.06172839506172839,0,0,0.06172839506172839,45.55555555555556,0)" xlink:href="#ai"/><use transform="matrix(0.06172839506172839,0,0,0.06172839506172839,56.66666666666667,0)" xlink:href="#ab"/><use transform="matrix(0.06172839506172839,0,0,0.06172839506172839,62.83950617283951,0)" xlink:href="#ac"/><use transform="matrix(0.06172839506172839,0,0,0.06172839506172839,75.18518518518519,0)" xlink:href="#aj"/></g><path fill="#282c33" d="M212-179c-10-28-35-45-73-45-59 0-87 40-87 99 0 60 29 101 89 101 43 0 62-24 78-52l27 14C228-24 195 4 139 4 59 4 22-46 18-125c-6-104 99-153 187-111 19 9 31 26 39 46" id="ak"/><path fill="#282c33" d="M24 0v-261h32V0H24" id="al"/><g id="e"><use transform="matrix(0.06172839506172839,0,0,0.06172839506172839,0,0)" xlink:href="#ak"/><use transform="matrix(0.06172839506172839,0,0,0.06172839506172839,15.987654320987653,0)" xlink:href="#al"/><use transform="matrix(0.06172839506172839,0,0,0.06172839506172839,20.864197530864196,0)" xlink:href="#ah"/><use transform="matrix(0.06172839506172839,0,0,0.06172839506172839,25.74074074074074,0)" xlink:href="#ac"/><use transform="matrix(0.06172839506172839,0,0,0.06172839506172839,38.08641975308642,0)" xlink:href="#X"/><use transform="matrix(0.06172839506172839,0,0,0.06172839506172839,50.432098765432094,0)" xlink:href="#ab"/></g><path fill="#282c33" d="M135-150c-39-12-60 13-60 57V0H25l-1-190h47c2 13-1 29 3 40 6-28 27-53 61-41v41" id="am"/><path fill="#282c33" d="M185-48c-13 30-37 53-82 52C43 2 14-33 14-96s30-98 90-98c62 0 83 45 84 108H66c0 31 8 55 39 56 18 0 30-7 34-22zm-45-69c5-46-57-63-70-21-2 6-4 13-4 21h74" id="an"/><path fill="#282c33" d="M84 4C32 4 15-41 15-95c0-55 18-99 73-99 29 0 47 12 58 34l2-30h48l-1 265h-49V-32C136-9 114 4 84 4zm21-34c32 0 41-29 41-66 0-36-9-64-40-64-33 0-39 30-40 65 0 43 13 65 39 65" id="ao"/><path fill="#282c33" d="M85 4C-2 5 27-109 22-190h50c7 57-23 150 33 157 60-5 35-97 40-157h50l1 190h-47c-2-12 1-28-3-38-12 25-28 42-61 42" id="ap"/><path fill="#282c33" d="M137-138c1-29-70-34-71-4 15 46 118 7 119 86 1 83-164 76-172 9l43-7c4 19 20 25 44 25 33 8 57-30 24-41C81-84 22-81 20-136c-2-80 154-74 161-7" id="aq"/><path fill="#282c33" d="M115-3C79 11 28 4 28-45v-112H4v-33h27l15-45h31v45h36v33H77v99c-1 23 16 31 38 25v30" id="ar"/><g id="f"><use transform="matrix(0.04938271604938272,0,0,0.04938271604938272,0,0)" xlink:href="#am"/><use transform="matrix(0.04938271604938272,0,0,0.04938271604938272,6.913580246913581,0)" xlink:href="#an"/><use transform="matrix(0.04938271604938272,0,0,0.04938271604938272,16.790123456790127,0)" xlink:href="#ao"/><use transform="matrix(0.04938271604938272,0,0,0.04938271604938272,27.604938271604947,0)" xlink:href="#ap"/><use transform="matrix(0.04938271604938272,0,0,0.04938271604938272,38.41975308641976,0)" xlink:href="#an"/><use transform="matrix(0.04938271604938272,0,0,0.04938271604938272,48.296296296296305,0)" xlink:href="#aq"/><use transform="matrix(0.04938271604938272,0,0,0.04938271604938272,58.17283950617284,0)" xlink:href="#ar"/></g><path fill="#282c33" d="M135-194c53 0 70 44 70 98 0 56-19 98-73 100-31 1-45-17-59-34 3 33 2 69 2 105H25l-1-265h48c2 10 0 23 3 31 11-24 29-35 60-35zM114-30c33 0 39-31 40-66 0-38-9-64-40-64-56 0-55 130 0 130" id="as"/><path fill="#282c33" d="M110-194c64 0 96 36 96 99 0 64-35 99-97 99-61 0-95-36-95-99 0-62 34-99 96-99zm-1 164c35 0 45-28 45-65 0-40-10-65-43-65-34 0-45 26-45 65 0 36 10 65 43 65" id="at"/><path fill="#282c33" d="M135-194c87-1 58 113 63 194h-50c-7-57 23-157-34-157-59 0-34 97-39 157H25l-1-190h47c2 12-1 28 3 38 12-26 28-41 61-42" id="au"/><g id="g"><use transform="matrix(0.04938271604938272,0,0,0.04938271604938272,0,0)" xlink:href="#am"/><use transform="matrix(0.04938271604938272,0,0,0.04938271604938272,6.913580246913581,0)" xlink:href="#an"/><use transform="matrix(0.04938271604938272,0,0,0.04938271604938272,16.790123456790127,0)" xlink:href="#aq"/><use transform="matrix(0.04938271604938272,0,0,0.04938271604938272,26.666666666666668,0)" xlink:href="#as"/><use transform="matrix(0.04938271604938272,0,0,0.04938271604938272,37.48148148148149,0)" xlink:href="#at"/><use transform="matrix(0.04938271604938272,0,0,0.04938271604938272,48.296296296296305,0)" xlink:href="#au"/><use transform="matrix(0.04938271604938272,0,0,0.04938271604938272,59.111111111111114,0)" xlink:href="#aq"/><use transform="matrix(0.04938271604938272,0,0,0.04938271604938272,68.98765432098767,0)" xlink:href="#an"/></g><path fill="#282c33" d="M185-189c-5-48-123-54-124 2 14 75 158 14 163 119 3 78-121 87-175 55-17-10-28-26-33-46l33-7c5 56 141 63 141-1 0-78-155-14-162-118-5-82 145-84 179-34 5 7 8 16 11 25" id="av"/><g id="h"><use transform="matrix(0.06172839506172839,0,0,0.06172839506172839,0,0)" xlink:href="#av"/><use transform="matrix(0.06172839506172839,0,0,0.06172839506172839,14.814814814814813,0)" xlink:href="#ab"/><use transform="matrix(0.06172839506172839,0,0,0.06172839506172839,20.98765432098765,0)" xlink:href="#W"/><use transform="matrix(0.06172839506172839,0,0,0.06172839506172839,33.33333333333333,0)" xlink:href="#aj"/><use transform="matrix(0.06172839506172839,0,0,0.06172839506172839,40.679012345679006,0)" xlink:href="#ac"/></g><path fill="#282c33" d="M240 0l2-218c-23 76-54 145-80 218h-23L58-218 59 0H30v-248h44l77 211c21-75 51-140 76-211h43V0h-30" id="aw"/><g id="i"><use transform="matrix(0.06172839506172839,0,0,0.06172839506172839,0,0)" xlink:href="#aw"/><use transform="matrix(0.06172839506172839,0,0,0.06172839506172839,18.456790123456788,0)" xlink:href="#ac"/><use transform="matrix(0.06172839506172839,0,0,0.06172839506172839,30.80246913580247,0)" xlink:href="#ai"/><use transform="matrix(0.06172839506172839,0,0,0.06172839506172839,41.91358024691358,0)" xlink:href="#ai"/><use transform="matrix(0.06172839506172839,0,0,0.06172839506172839,53.0246913580247,0)" xlink:href="#U"/><use transform="matrix(0.06172839506172839,0,0,0.06172839506172839,65.37037037037038,0)" xlink:href="#ag"/><use transform="matrix(0.06172839506172839,0,0,0.06172839506172839,77.71604938271606,0)" xlink:href="#ac"/></g><path fill="#282c33" d="M108 0H70L1-190h34L89-25l56-165h34" id="ax"/><g id="j"><use transform="matrix(0.06172839506172839,0,0,0.06172839506172839,0,0)" xlink:href="#af"/><use transform="matrix(0.06172839506172839,0,0,0.06172839506172839,15.987654320987653,0)" xlink:href="#ac"/><use transform="matrix(0.06172839506172839,0,0,0.06172839506172839,28.333333333333332,0)" xlink:href="#ab"/><use transform="matrix(0.06172839506172839,0,0,0.06172839506172839,34.50617283950617,0)" xlink:href="#aj"/><use transform="matrix(0.06172839506172839,0,0,0.06172839506172839,41.85185185185185,0)" xlink:href="#ah"/><use transform="matrix(0.06172839506172839,0,0,0.06172839506172839,46.72839506172839,0)" xlink:href="#ac"/><use transform="matrix(0.06172839506172839,0,0,0.06172839506172839,59.07407407407407,0)" xlink:href="#ax"/><use transform="matrix(0.06172839506172839,0,0,0.06172839506172839,70.18518518518518,0)" xlink:href="#ac"/></g><g id="k"><use transform="matrix(0.06172839506172839,0,0,0.06172839506172839,0,0)" xlink:href="#aw"/><use transform="matrix(0.06172839506172839,0,0,0.06172839506172839,18.456790123456788,0)" xlink:href="#ac"/><use transform="matrix(0.06172839506172839,0,0,0.06172839506172839,30.80246913580247,0)" xlink:href="#ai"/><use transform="matrix(0.06172839506172839,0,0,0.06172839506172839,41.91358024691358,0)" xlink:href="#ai"/><use transform="matrix(0.06172839506172839,0,0,0.06172839506172839,53.0246913580247,0)" xlink:href="#U"/><use transform="matrix(0.06172839506172839,0,0,0.06172839506172839,65.37037037037038,0)" xlink:href="#ag"/><use transform="matrix(0.06172839506172839,0,0,0.06172839506172839,77.71604938271606,0)" xlink:href="#ac"/><use transform="matrix(0.06172839506172839,0,0,0.06172839506172839,90.06172839506175,0)" xlink:href="#ai"/></g><g id="l"><use transform="matrix(0.05,0,0,0.05,0,0)" xlink:href="#ak"/><use transform="matrix(0.05,0,0,0.05,12.950000000000001,0)" xlink:href="#al"/><use transform="matrix(0.05,0,0,0.05,16.900000000000002,0)" xlink:href="#ah"/><use transform="matrix(0.05,0,0,0.05,20.85,0)" xlink:href="#ac"/><use transform="matrix(0.05,0,0,0.05,30.85,0)" xlink:href="#X"/><use transform="matrix(0.05,0,0,0.05,40.85,0)" xlink:href="#ab"/><use transform="matrix(0.05,0,0,0.05,45.85,0)" xlink:href="#ai"/></g><path fill="#282c33" d="M106-169C34-169 62-67 57 0H25v-261h32l-1 103c12-21 28-36 61-36 89 0 53 116 60 194h-32v-121c2-32-8-49-39-48" id="ay"/><g id="m"><use transform="matrix(0.05,0,0,0.05,0,0)" xlink:href="#ak"/><use transform="matrix(0.05,0,0,0.05,12.950000000000001,0)" xlink:href="#ay"/><use transform="matrix(0.05,0,0,0.05,22.950000000000003,0)" xlink:href="#U"/><use transform="matrix(0.05,0,0,0.05,32.95,0)" xlink:href="#ab"/></g><g id="n"><use transform="matrix(0.05,0,0,0.05,0,0)" xlink:href="#aw"/><use transform="matrix(0.05,0,0,0.05,14.950000000000001,0)" xlink:href="#ac"/><use transform="matrix(0.05,0,0,0.05,24.950000000000003,0)" xlink:href="#ai"/><use transform="matrix(0.05,0,0,0.05,33.95,0)" xlink:href="#ai"/><use transform="matrix(0.05,0,0,0.05,42.95,0)" xlink:href="#U"/><use transform="matrix(0.05,0,0,0.05,52.95,0)" xlink:href="#ag"/><use transform="matrix(0.05,0,0,0.05,62.95,0)" xlink:href="#ac"/><use transform="matrix(0.05,0,0,0.05,72.95,0)" xlink:href="#ai"/></g><path fill="#282c33" d="M160-152l-12 59h37v26h-43L128 0h-28l14-67H60L46 0H20l13-67H6v-26h33l13-59H15v-26h42l15-67h27l-15 67h54l15-67h27l-14 67h28v26h-34zm-81 0L66-93h55l12-59H79" id="az"/><path fill="#282c33" d="M23 0v-37h61v-169l-59 37v-38l62-41h46v211h57V0H23" id="aA"/><g id="o"><use transform="matrix(0.04938271604938272,0,0,0.04938271604938272,0,0)" xlink:href="#az"/><use transform="matrix(0.04938271604938272,0,0,0.04938271604938272,9.876543209876544,0)" xlink:href="#aA"/></g><path fill="#282c33" d="M182-182c0 78-84 86-111 141h115V0H12c-6-101 99-100 120-180 1-22-12-31-33-32-23 0-32 14-35 34l-49-3c5-45 32-70 84-70 51 0 83 22 83 69" id="aB"/><g id="p"><use transform="matrix(0.04938271604938272,0,0,0.04938271604938272,0,0)" xlink:href="#az"/><use transform="matrix(0.04938271604938272,0,0,0.04938271604938272,9.876543209876544,0)" xlink:href="#aB"/></g><path fill="#282c33" d="M52 0c1-96 47-148 87-207H15v-41h169v40c-36 62-79 113-81 208H52" id="aC"/><g id="q"><use transform="matrix(0.04938271604938272,0,0,0.04938271604938272,0,0)" xlink:href="#az"/><use transform="matrix(0.04938271604938272,0,0,0.04938271604938272,9.876543209876544,0)" xlink:href="#aC"/></g><path fill="#282c33" d="M138-131c27 9 52 24 51 61 0 53-36 74-89 74S11-19 11-69c0-35 22-54 51-61-78-25-46-121 38-121 51 0 83 19 83 66 0 30-18 49-45 54zm-38-16c24 0 32-13 32-36 1-23-11-34-32-34-22 0-33 12-32 34 0 22 9 36 32 36zm1 116c27 0 37-17 37-43 0-25-13-39-39-39-24 0-37 15-37 40 0 27 11 42 39 42" id="aD"/><g id="r"><use transform="matrix(0.04938271604938272,0,0,0.04938271604938272,0,0)" xlink:href="#az"/><use transform="matrix(0.04938271604938272,0,0,0.04938271604938272,9.876543209876544,0)" xlink:href="#aD"/></g><path fill="#282c33" d="M128-127c34 4 56 21 59 58 7 91-148 94-172 28-4-9-6-17-7-26l51-5c1 24 16 35 40 36 23 0 39-12 38-36-1-31-31-36-65-34v-40c32 2 59-3 59-33 0-20-13-33-34-33s-33 13-35 32l-50-3c6-44 37-68 86-68 50 0 83 20 83 66 0 35-22 52-53 58" id="aE"/><g id="s"><use transform="matrix(0.04938271604938272,0,0,0.04938271604938272,0,0)" xlink:href="#az"/><use transform="matrix(0.04938271604938272,0,0,0.04938271604938272,9.876543209876544,0)" xlink:href="#aE"/></g><path fill="#282c33" d="M165-50V0h-47v-50H5v-38l105-160h55v161h33v37h-33zm-47-37l2-116L46-87h72" id="aF"/><g id="t"><use transform="matrix(0.04938271604938272,0,0,0.04938271604938272,0,0)" xlink:href="#az"/><use transform="matrix(0.04938271604938272,0,0,0.04938271604938272,9.876543209876544,0)" xlink:href="#aF"/></g><g id="u"><use transform="matrix(0.05,0,0,0.05,0,0)" xlink:href="#aw"/><use transform="matrix(0.05,0,0,0.05,14.950000000000001,0)" xlink:href="#ac"/><use transform="matrix(0.05,0,0,0.05,24.950000000000003,0)" xlink:href="#ai"/><use transform="matrix(0.05,0,0,0.05,33.95,0)" xlink:href="#ai"/><use transform="matrix(0.05,0,0,0.05,42.95,0)" xlink:href="#U"/><use transform="matrix(0.05,0,0,0.05,52.95,0)" xlink:href="#ag"/><use transform="matrix(0.05,0,0,0.05,62.95,0)" xlink:href="#ac"/><use transform="matrix(0.05,0,0,0.05,72.95,0)" xlink:href="#ai"/></g><path fill="#282c33" d="M232-93c-1 65-40 97-104 97C67 4 28-28 28-90v-158h33c8 89-33 224 67 224 102 0 64-133 71-224h33v155" id="aG"/><path fill="#282c33" d="M115-194c55 1 70 41 70 98S169 2 115 4C84 4 66-9 55-30l1 105H24l-1-265h31l2 30c10-21 28-34 59-34zm-8 174c40 0 45-34 45-75s-6-73-45-74c-42 0-51 32-51 76 0 43 10 73 51 73" id="aH"/><path fill="#282c33" d="M85-194c31 0 48 13 60 33l-1-100h32l1 261h-30c-2-10 0-23-3-31C134-8 116 4 85 4 32 4 16-35 15-94c0-66 23-100 70-100zm9 24c-40 0-46 34-46 75 0 40 6 74 45 74 42 0 51-32 51-76 0-42-9-74-50-73" id="aI"/><g id="v"><use transform="matrix(0.05,0,0,0.05,0,0)" xlink:href="#aG"/><use transform="matrix(0.05,0,0,0.05,12.950000000000001,0)" xlink:href="#aH"/><use transform="matrix(0.05,0,0,0.05,22.950000000000003,0)" xlink:href="#aI"/><use transform="matrix(0.05,0,0,0.05,32.95,0)" xlink:href="#U"/><use transform="matrix(0.05,0,0,0.05,42.95,0)" xlink:href="#ab"/><use transform="matrix(0.05,0,0,0.05,47.95,0)" xlink:href="#ac"/></g><g id="w"><use transform="matrix(0.05,0,0,0.05,0,0)" xlink:href="#av"/><use transform="matrix(0.05,0,0,0.05,12,0)" xlink:href="#ab"/><use transform="matrix(0.05,0,0,0.05,17,0)" xlink:href="#aj"/><use transform="matrix(0.05,0,0,0.05,22.95,0)" xlink:href="#ac"/><use transform="matrix(0.05,0,0,0.05,32.95,0)" xlink:href="#U"/><use transform="matrix(0.05,0,0,0.05,42.95,0)" xlink:href="#T"/></g><path fill="#282c33" d="M99-251c69 0 84 53 88 123 5 99-61 162-144 118-15-8-21-25-26-45l46-6c4 31 50 33 63 7 7-15 12-36 12-60-9 18-29 28-54 28-48 0-72-32-72-82 0-55 31-83 87-83zm-1 128c24 0 37-16 37-39 0-27-10-51-37-51-25 0-35 19-35 45 0 25 10 45 35 45" id="aJ"/><g id="x"><use transform="matrix(0.04938271604938272,0,0,0.04938271604938272,0,0)" xlink:href="#az"/><use transform="matrix(0.04938271604938272,0,0,0.04938271604938272,9.876543209876544,0)" xlink:href="#aJ"/></g><path fill="#282c33" d="M101-251c68 0 84 54 84 127C185-50 166 4 99 4S15-52 14-124c-1-75 17-127 87-127zm-1 216c37-5 36-46 36-89s4-89-36-89c-39 0-36 45-36 89 0 43-3 85 36 89" id="aK"/><g id="y"><use transform="matrix(0.04938271604938272,0,0,0.04938271604938272,0,0)" xlink:href="#az"/><use transform="matrix(0.04938271604938272,0,0,0.04938271604938272,9.876543209876544,0)" xlink:href="#aA"/><use transform="matrix(0.04938271604938272,0,0,0.04938271604938272,19.75308641975309,0)" xlink:href="#aK"/></g><g id="z"><use transform="matrix(0.06172839506172839,0,0,0.06172839506172839,0,0)" xlink:href="#X"/><use transform="matrix(0.06172839506172839,0,0,0.06172839506172839,12.345679012345679,0)" xlink:href="#ac"/><use transform="matrix(0.06172839506172839,0,0,0.06172839506172839,24.691358024691358,0)" xlink:href="#ad"/></g><g id="A"><use transform="matrix(0.06172839506172839,0,0,0.06172839506172839,0,0)" xlink:href="#T"/><use transform="matrix(0.06172839506172839,0,0,0.06172839506172839,18.456790123456788,0)" xlink:href="#ac"/><use transform="matrix(0.06172839506172839,0,0,0.06172839506172839,30.80246913580247,0)" xlink:href="#ai"/><use transform="matrix(0.06172839506172839,0,0,0.06172839506172839,41.91358024691358,0)" xlink:href="#ai"/><use transform="matrix(0.06172839506172839,0,0,0.06172839506172839,53.0246913580247,0)" xlink:href="#U"/><use transform="matrix(0.06172839506172839,0,0,0.06172839506172839,65.37037037037038,0)" xlink:href="#ag"/><use transform="matrix(0.06172839506172839,0,0,0.06172839506172839,77.71604938271606,0)" xlink:href="#ac"/><use transform="matrix(0.06172839506172839,0,0,0.06172839506172839,90.06172839506175,0)" xlink:href="#ai"/></g><path fill="#282c33" d="M145-31C134-9 116 4 85 4 32 4 16-35 15-94c0-59 17-99 70-100 32-1 48 14 60 33 0-11-1-24 2-32h30l-1 268h-32zM93-21c41 0 51-33 51-76s-8-73-50-73c-40 0-46 35-46 75s5 74 45 74" id="aL"/><path fill="#282c33" d="M84 4C-5 8 30-112 23-190h32v120c0 31 7 50 39 49 72-2 45-101 50-169h31l1 190h-30c-1-10 1-25-2-33-11 22-28 36-60 37" id="aM"/><g id="B"><use transform="matrix(0.06172839506172839,0,0,0.06172839506172839,0,0)" xlink:href="#aL"/><use transform="matrix(0.06172839506172839,0,0,0.06172839506172839,12.345679012345679,0)" xlink:href="#aM"/><use transform="matrix(0.06172839506172839,0,0,0.06172839506172839,24.691358024691358,0)" xlink:href="#ac"/><use transform="matrix(0.06172839506172839,0,0,0.06172839506172839,37.03703703703704,0)" xlink:href="#aM"/><use transform="matrix(0.06172839506172839,0,0,0.06172839506172839,49.382716049382715,0)" xlink:href="#ac"/></g><path fill="#282c33" d="M190 0L58-211 59 0H30v-248h39L202-35l-2-213h31V0h-41" id="aN"/><path fill="#282c33" d="M101-234c-31-9-42 10-38 44h38v23H63V0H32v-167H5v-23h27c-7-52 17-82 69-68v24" id="aO"/><g id="C"><use transform="matrix(0.06172839506172839,0,0,0.06172839506172839,0,0)" xlink:href="#aN"/><use transform="matrix(0.06172839506172839,0,0,0.06172839506172839,15.987654320987653,0)" xlink:href="#W"/><use transform="matrix(0.06172839506172839,0,0,0.06172839506172839,28.333333333333332,0)" xlink:href="#ab"/><use transform="matrix(0.06172839506172839,0,0,0.06172839506172839,34.50617283950617,0)" xlink:href="#ah"/><use transform="matrix(0.06172839506172839,0,0,0.06172839506172839,39.382716049382715,0)" xlink:href="#aO"/><use transform="matrix(0.06172839506172839,0,0,0.06172839506172839,45.55555555555556,0)" xlink:href="#ah"/><use transform="matrix(0.06172839506172839,0,0,0.06172839506172839,50.4320987654321,0)" xlink:href="#ac"/><use transform="matrix(0.06172839506172839,0,0,0.06172839506172839,62.77777777777778,0)" xlink:href="#aj"/></g><g id="D"><use transform="matrix(0.04938271604938272,0,0,0.04938271604938272,0,0)" xlink:href="#az"/><use transform="matrix(0.04938271604938272,0,0,0.04938271604938272,9.876543209876544,0)" xlink:href="#aA"/><use transform="matrix(0.04938271604938272,0,0,0.04938271604938272,18.765432098765434,0)" xlink:href="#aA"/></g><g id="E"><use transform="matrix(0.04938271604938272,0,0,0.04938271604938272,0,0)" xlink:href="#az"/><use transform="matrix(0.04938271604938272,0,0,0.04938271604938272,9.876543209876544,0)" xlink:href="#aA"/><use transform="matrix(0.04938271604938272,0,0,0.04938271604938272,19.75308641975309,0)" xlink:href="#aB"/></g><path fill="#282c33" d="M160-131c35 5 61 23 61 61C221 17 115-2 30 0v-248c76 3 177-17 177 60 0 33-19 50-47 57zm-97-11c50-1 110 9 110-42 0-47-63-36-110-37v79zm0 115c55-2 124 14 124-45 0-56-70-42-124-44v89" id="aP"/><g id="F"><use transform="matrix(0.06172839506172839,0,0,0.06172839506172839,0,0)" xlink:href="#aP"/><use transform="matrix(0.06172839506172839,0,0,0.06172839506172839,14.814814814814813,0)" xlink:href="#aj"/><use transform="matrix(0.06172839506172839,0,0,0.06172839506172839,22.160493827160494,0)" xlink:href="#W"/><use transform="matrix(0.06172839506172839,0,0,0.06172839506172839,34.50617283950617,0)" xlink:href="#ad"/><use transform="matrix(0.06172839506172839,0,0,0.06172839506172839,50.49382716049382,0)" xlink:href="#ai"/><use transform="matrix(0.06172839506172839,0,0,0.06172839506172839,61.60493827160494,0)" xlink:href="#ac"/><use transform="matrix(0.06172839506172839,0,0,0.06172839506172839,73.95061728395062,0)" xlink:href="#aj"/></g><g id="G"><use transform="matrix(0.06172839506172839,0,0,0.06172839506172839,0,0)" xlink:href="#Y"/><use transform="matrix(0.06172839506172839,0,0,0.06172839506172839,14.814814814814813,0)" xlink:href="#aM"/><use transform="matrix(0.06172839506172839,0,0,0.06172839506172839,27.160493827160494,0)" xlink:href="#ai"/><use transform="matrix(0.06172839506172839,0,0,0.06172839506172839,38.27160493827161,0)" xlink:href="#ay"/></g><g id="H"><use transform="matrix(0.06172839506172839,0,0,0.06172839506172839,0,0)" xlink:href="#av"/><use transform="matrix(0.06172839506172839,0,0,0.06172839506172839,14.814814814814813,0)" xlink:href="#ac"/><use transform="matrix(0.06172839506172839,0,0,0.06172839506172839,27.160493827160494,0)" xlink:href="#aj"/><use transform="matrix(0.06172839506172839,0,0,0.06172839506172839,34.50617283950617,0)" xlink:href="#ax"/><use transform="matrix(0.06172839506172839,0,0,0.06172839506172839,45.61728395061728,0)" xlink:href="#ac"/><use transform="matrix(0.06172839506172839,0,0,0.06172839506172839,57.962962962962955,0)" xlink:href="#aj"/></g><g id="I"><use transform="matrix(0.04938271604938272,0,0,0.04938271604938272,0,0)" xlink:href="#az"/><use transform="matrix(0.04938271604938272,0,0,0.04938271604938272,9.876543209876544,0)" xlink:href="#aA"/><use transform="matrix(0.04938271604938272,0,0,0.04938271604938272,19.75308641975309,0)" xlink:href="#aF"/></g><path fill="#282c33" d="M175 0L67-191c6 58 2 128 3 191H24v-248h59L193-55c-6-58-2-129-3-193h46V0h-61" id="aQ"/><path fill="#282c33" d="M25-224v-37h50v37H25zM25 0v-190h50V0H25" id="aR"/><path fill="#282c33" d="M121-226c-27-7-43 5-38 36h38v33H83V0H34v-157H6v-33h28c-9-59 32-81 87-68v32" id="aS"/><path fill="#282c33" d="M123 10C108 53 80 86 19 72V37c35 8 53-11 59-39L3-190h52l48 148c12-52 28-100 44-148h51" id="aT"/><g id="J"><use transform="matrix(0.04938271604938272,0,0,0.04938271604938272,0,0)" xlink:href="#aQ"/><use transform="matrix(0.04938271604938272,0,0,0.04938271604938272,12.790123456790125,0)" xlink:href="#at"/><use transform="matrix(0.04938271604938272,0,0,0.04938271604938272,23.60493827160494,0)" xlink:href="#ar"/><use transform="matrix(0.04938271604938272,0,0,0.04938271604938272,29.481481481481485,0)" xlink:href="#aR"/><use transform="matrix(0.04938271604938272,0,0,0.04938271604938272,34.41975308641976,0)" xlink:href="#aS"/><use transform="matrix(0.04938271604938272,0,0,0.04938271604938272,40.296296296296305,0)" xlink:href="#aT"/></g><path fill="#282c33" d="M231 0h-52l-39-155L100 0H48L-1-190h46L77-45c9-52 24-97 36-145h53l37 145 32-145h46" id="aU"/><path fill="#282c33" d="M135-194c52 0 70 43 70 98 0 56-19 99-73 100-30 1-46-15-58-35L72 0H24l1-261h50v104c11-23 29-37 60-37zM114-30c31 0 40-27 40-66 0-37-7-63-39-63s-41 28-41 65c0 36 8 64 40 64" id="aV"/><g id="K"><use transform="matrix(0.04938271604938272,0,0,0.04938271604938272,0,0)" xlink:href="#aU"/><use transform="matrix(0.04938271604938272,0,0,0.04938271604938272,13.827160493827162,0)" xlink:href="#an"/><use transform="matrix(0.04938271604938272,0,0,0.04938271604938272,23.703703703703706,0)" xlink:href="#aV"/></g><path fill="#282c33" d="M133-34C117-15 103 5 69 4 32 3 11-16 11-54c-1-60 55-63 116-61 1-26-3-47-28-47-18 1-26 9-28 27l-52-2c7-38 36-58 82-57s74 22 75 68l1 82c-1 14 12 18 25 15v27c-30 8-71 5-69-32zm-48 3c29 0 43-24 42-57-32 0-66-3-65 30 0 17 8 27 23 27" id="aW"/><g id="L"><use transform="matrix(0.04938271604938272,0,0,0.04938271604938272,0,0)" xlink:href="#aW"/><use transform="matrix(0.04938271604938272,0,0,0.04938271604938272,9.876543209876544,0)" xlink:href="#as"/><use transform="matrix(0.04938271604938272,0,0,0.04938271604938272,20.69135802469136,0)" xlink:href="#as"/></g><path fill="#282c33" d="M139-81c0-46-55-55-73-27H18l9-140h149v37H72l-4 63c44-38 133-4 122 66C201 21 21 35 11-62l49-4c5 18 15 30 39 30 26 0 40-18 40-45" id="aX"/><g id="M"><use transform="matrix(0.04938271604938272,0,0,0.04938271604938272,0,0)" xlink:href="#az"/><use transform="matrix(0.04938271604938272,0,0,0.04938271604938272,9.876543209876544,0)" xlink:href="#aA"/><use transform="matrix(0.04938271604938272,0,0,0.04938271604938272,19.75308641975309,0)" xlink:href="#aX"/></g><path fill="#282c33" d="M115-159c48 0 72 30 72 78 0 54-30 85-83 85-64 0-91-50-91-122 0-98 58-163 141-120 15 8 21 24 27 44l-47 6c-5-31-48-31-61-4-7 14-11 33-11 60 9-17 28-27 53-27zM102-35c24 0 36-20 36-45s-11-43-37-43c-23 0-36 14-36 38 0 27 11 50 37 50" id="aY"/><g id="N"><use transform="matrix(0.04938271604938272,0,0,0.04938271604938272,0,0)" xlink:href="#az"/><use transform="matrix(0.04938271604938272,0,0,0.04938271604938272,9.876543209876544,0)" xlink:href="#aY"/></g><g id="O"><use transform="matrix(0.04938271604938272,0,0,0.04938271604938272,0,0)" xlink:href="#az"/><use transform="matrix(0.04938271604938272,0,0,0.04938271604938272,9.876543209876544,0)" xlink:href="#aX"/></g><g id="P"><use transform="matrix(0.04938271604938272,0,0,0.04938271604938272,0,0)" xlink:href="#az"/><use transform="matrix(0.04938271604938272,0,0,0.04938271604938272,9.876543209876544,0)" xlink:href="#aA"/><use transform="matrix(0.04938271604938272,0,0,0.04938271604938272,19.75308641975309,0)" xlink:href="#aE"/></g><path fill="#282c33" d="M266 0h-40l-56-210L115 0H75L2-248h35L96-30l15-64 43-154h32l59 218 59-218h35" id="aZ"/><path fill="#282c33" d="M115-194c53 0 69 39 70 98 0 66-23 100-70 100C84 3 66-7 56-30L54 0H23l1-261h32v101c10-23 28-34 59-34zm-8 174c40 0 45-34 45-75 0-40-5-75-45-74-42 0-51 32-51 76 0 43 10 73 51 73" id="ba"/><g id="Q"><use transform="matrix(0.06172839506172839,0,0,0.06172839506172839,0,0)" xlink:href="#aZ"/><use transform="matrix(0.06172839506172839,0,0,0.06172839506172839,20.493827160493826,0)" xlink:href="#ac"/><use transform="matrix(0.06172839506172839,0,0,0.06172839506172839,32.839506172839506,0)" xlink:href="#ba"/></g><g id="R"><use transform="matrix(0.06172839506172839,0,0,0.06172839506172839,0,0)" xlink:href="#S"/><use transform="matrix(0.06172839506172839,0,0,0.06172839506172839,14.814814814814813,0)" xlink:href="#aH"/><use transform="matrix(0.06172839506172839,0,0,0.06172839506172839,27.160493827160494,0)" xlink:href="#aH"/></g></defs></g></svg>